HIERARCHY
ROOT Hips
{
    OFFSET 0.000000 0.000000 0.000000
    CHANNELS 6 Xposition Yposition Zposition Zrotation Xrotation Yrotation
    JOINT Spine
    {
        OFFSET -0.000000 14.517291 0.000000
        CHANNELS 3 Zrotation Xrotation Yrotation
        JOINT Spine1
        {
            OFFSET -0.000000 37.558300 0.000000
            CHANNELS 3 Zrotation Xrotation Yrotation
            JOINT Neck
            {
                OFFSET -0.000000 37.404057 3.400369
                CHANNELS 3 Zrotation Xrotation Yrotation
                JOINT Head
                {
                    OFFSET -0.000000 24.785618 -3.540803
                    CHANNELS 3 Zrotation Xrotation Yrotation
                    End Site
                    {
                        OFFSET -0.000000 35.408028 0.000000
                    }
                }
            }
            JOINT LeftShoulder
            {
                OFFSET 6.992933 33.973492 -0.192664
                CHANNELS 3 Zrotation Xrotation Yrotation
                JOINT LeftArm
                {
                    OFFSET 21.527611 0.000000 0.000000
                    CHANNELS 3 Zrotation Xrotation Yrotation
                    JOINT LeftForeArm
                    {
                        OFFSET 56.353916 0.000000 0.000000
                        CHANNELS 3 Zrotation Xrotation Yrotation
                        JOINT LeftHand
                        {
                            OFFSET 47.774071 0.000000 0.000000
                            CHANNELS 3 Zrotation Xrotation Yrotation
                            End Site
                            {
                                OFFSET 26.556021 0.000000 0.000000
                            }
                        }
                    }
                }
            }
            JOINT RightShoulder
            {
                OFFSET -7.065357 33.973492 -0.192664
                CHANNELS 3 Zrotation Xrotation Yrotation
                JOINT RightArm
                {
                    OFFSET -21.527611 0.000000 0.000000
                    CHANNELS 3 Zrotation Xrotation Yrotation
                    JOINT RightForeArm
                    {
                        OFFSET -56.353916 0.000000 0.000000
                        CHANNELS 3 Zrotation Xrotation Yrotation
                        JOINT RightHand
                        {
                            OFFSET -47.774071 0.000000 0.000000
                            CHANNELS 3 Zrotation Xrotation Yrotation
                            End Site
                            {
                                OFFSET -26.556021 0.000000 0.000000
                            }
                        }
                    }
                }
            }
        }
    }
    JOINT LeftUpLeg
    {
        OFFSET 17.704014 0.000000 0.000000
        CHANNELS 3 Zrotation Xrotation Yrotation
        JOINT LeftLeg
        {
            OFFSET -0.000000 -81.181816 0.000000
            CHANNELS 3 Zrotation Xrotation Yrotation
            JOINT LeftFoot
            {
                OFFSET -0.000000 -62.821102 0.000000
                CHANNELS 3 Zrotation Xrotation Yrotation
                JOINT LeftToeBase
                {
                    OFFSET -0.000000 -11.507608 26.556021
                    CHANNELS 3 Zrotation Xrotation Yrotation
                    End Site
                    {
                        OFFSET -0.000000 0.000000 7.081605
                    }
                }
            }
        }
    }
    JOINT RightUpLeg
    {
        OFFSET -17.704014 0.000000 0.000000
        CHANNELS 3 Zrotation Xrotation Yrotation
        JOINT RightLeg
        {
            OFFSET -0.000000 -81.181816 0.000000
            CHANNELS 3 Zrotation Xrotation Yrotation
            JOINT RightFoot
            {
                OFFSET -0.000000 -62.821102 0.000000
                CHANNELS 3 Zrotation Xrotation Yrotation
                JOINT RightToeBase
                {
                    OFFSET -0.000000 -11.507608 26.556021
                    CHANNELS 3 Zrotation Xrotation Yrotation
                    End Site
                    {
                        OFFSET -0.000000 0.000000 7.081605
                    }
                }
            }
        }
    }
}
MOTION
Frames:    13
Frame Time:    0.008333
34.070866    159.193634    -101.500580    -0.661149    -1.807975    25.070246    -2.460696    -2.665099    -3.372608    -6.888924    -4.065852    -1.351933    7.754413    2.132000    -3.056816    11.379512    4.187908    -2.973558    15.802601    -13.847701    -16.078245    -30.120689    -24.034111    -65.613998    5.248203    -57.043156    -93.357086    -29.729136    -46.684814    -40.632233    -8.022812    5.438118    -6.471786    21.685699    24.516626    11.319177    16.224104    13.319131    5.551412    2.556258    13.068957    23.631603    9.264706    2.697918    0.436811    -10.423242    23.016848    -16.983070    6.768409    -22.792498    44.520844    0.000000    0.000000    0.000000    -13.924475    -26.060507    -7.407050    11.860518    28.190966    -13.889339    2.706884    11.726436    -12.847952    0.000000    0.000000    0.000000    
34.067955    159.192490    -101.532532    -0.656307    -1.823598    25.108824    -2.473683    -2.666328    -3.391917    -6.866310    -3.994539    -1.353121    7.753783    2.168164    -3.073632    11.399566    4.038076    -2.971503    15.733237    -13.601983    -16.093861    -29.833269    -23.409609    -65.327980    4.953564    -56.722706    -93.156723    -29.500534    -46.644466    -40.286453    -8.009382    5.470237    -6.505022    21.683020    24.501274    11.389188    16.211155    13.264192    5.561585    2.558605    13.013648    23.632343    9.269547    2.688189    0.405601    -10.420681    23.029272    -16.990959    6.760572    -22.794230    44.502285    0.000000    0.000000    0.000000    -13.928461    -26.028458    -7.469701    11.824633    28.164074    -13.889301    2.678900    11.745359    -12.817845    0.000000    0.000000    0.000000    
34.065876    159.195053    -101.566566    -0.658465    -1.833665    25.144485    -2.475298    -2.680695    -3.414111    -6.856185    -3.910819    -1.354986    7.742133    2.271800    -3.073001    11.450350    3.753431    -2.928285    15.677744    -13.364862    -16.096605    -29.646574    -22.849812    -65.064514    4.541516    -56.232811    -93.015953    -29.329147    -46.430759    -40.087273    -7.992188    5.460760    -6.513763    21.700909    24.498695    11.414662    16.194042    13.250978    5.563117    2.541585    12.997941    23.649446    9.274427    2.677112    0.374633    -10.427474    23.021982    -16.985538    6.770527    -22.787962    44.503132    0.000000    0.000000    0.000000    -13.930704    -26.003992    -7.518561    11.793008    28.135225    -13.843780    2.696818    11.758121    -12.842070    0.000000    0.000000    0.000000    
34.067520    159.198166    -101.597786    -0.657574    -1.846287    25.169367    -2.486678    -2.699634    -3.429986    -6.826720    -3.815518    -1.353312    7.682525    2.472012    -3.104712    11.574475    3.337672    -2.884236    15.617168    -13.150932    -16.110100    -29.472891    -22.286694    -64.781219    3.990618    -55.788376    -93.084251    -29.093382    -46.428661    -39.674816    -7.974645    5.458304    -6.522023    21.709625    24.525236    11.439900    16.140621    13.211882    5.592032    2.588219    12.966593    23.636551    9.273932    2.675987    0.366856    -10.420165    23.019472    -16.995987    6.781338    -22.784042    44.491646    0.000000    0.000000    0.000000    -13.932116    -25.980198    -7.542416    11.772611    28.107260    -13.825845    2.715091    11.775059    -12.862735    0.000000    0.000000    0.000000    
34.072304    159.202148    -101.634720    -0.656769    -1.858186    25.197803    -2.484535    -2.708357    -3.444410    -6.811956    -3.732378    -1.352607    7.750087    2.288718    -3.074549    11.459958    3.508190    -2.904265    15.548676    -12.927020    -16.119860    -29.298162    -21.711817    -64.515137    3.667267    -55.332733    -92.911911    -29.118307    -46.119576    -39.626900    -7.955382    5.462121    -6.534748    21.722530    24.483694    11.475871    16.136938    13.206738    5.577206    2.600461    12.966241    23.639381    9.273635    2.674121    0.352174    -10.415377    23.010958    -16.999611    6.779740    -22.777040    44.472950    0.000000    0.000000    0.000000    -13.938782    -25.958862    -7.592317    11.743295    28.085201    -13.790048    2.716704    11.803340    -12.867844    0.000000    0.000000    0.000000    
34.076122    159.203857    -101.672913    -0.655452    -1.863707    25.220352    -2.495376    -2.724177    -3.451321    -6.779604    -3.644702    -1.348434    7.767930    2.239579    -3.076900    11.429037    3.462781    -2.911448    15.472388    -12.722270    -16.140724    -29.130772    -21.140661    -64.236992    3.289481    -54.861526    -92.796913    -29.102182    -45.871223    -39.442245    -7.945510    5.461493    -6.543375    21.713766    24.417112    11.496401    16.199980    13.241037    5.587634    2.598169    12.994747    23.600897    9.267763    2.666309    0.337151    -10.405076    23.004068    -17.015249    6.782021    -22.774532    44.471161    0.000000    0.000000    0.000000    -13.950366    -25.943810    -7.616855    11.734611    28.055067    -13.780712    2.731254    11.822006    -12.886812    0.000000    0.000000    0.000000    
34.084030    159.207016    -101.709702    -0.651368    -1.873019    25.234379    -2.493889    -2.730770    -3.447900    -6.770062    -3.564495    -1.342189    7.772940    2.251162    -3.096055    11.450911    3.324334    -2.915031    15.402717    -12.532753    -16.151197    -29.046030    -20.593416    -63.998070    2.789606    -54.276699    -92.795341    -28.925762    -45.635952    -39.177223    -7.923282    5.445005    -6.556174    21.727512    24.416746    11.498893    16.200594    13.262209    5.603399    2.587250    13.011226    23.589718    9.264089    2.664634    0.312787    -10.417559    22.994034    -17.001263    6.790193    -22.764410    44.467148    0.000000    0.000000    0.000000    -13.955479    -25.927177    -7.635545    11.709830    28.030651    -13.749833    2.742207    11.839522    -12.894278    0.000000    0.000000    0.000000    
34.087566    159.207642    -101.748596    -0.648939    -1.878761    25.248613    -2.485222    -2.733662    -3.444630    -6.769750    -3.491384    -1.336784    7.756012    2.332141    -3.143878    11.505637    3.129659    -2.931351    15.324514    -12.346082    -16.149679    -28.907511    -20.015753    -63.748859    2.393138    -53.731609    -92.721565    -28.701057    -45.407921    -38.846577    -7.903326    5.428628    -6.571790    21.744980    24.387165    11.505938    16.225937    13.291066    5.610358    2.564927    13.033303    23.586922    9.265036    2.653311    0.295326    -10.426424    23.005001    -17.035473    6.809396    -22.760357    44.489334    0.000000    0.000000    0.000000    -13.964455    -25.912237    -7.651644    11.698408    28.000980    -13.732206    2.756535    11.859291    -12.901197    0.000000    0.000000    0.000000    
34.089436    159.208817    -101.790497    -0.649472    -1.880769    25.254135    -2.475373    -2.736130    -3.434207    -6.772393    -3.428535    -1.329732    7.795307    2.215371    -3.139615    11.474200    3.154120    -2.946238    15.244632    -12.132695    -16.148981    -28.798216    -19.487221    -63.516323    1.975747    -53.071861    -92.621460    -28.362268    -45.091709    -38.540497    -7.877077    5.435073    -6.587933    21.760328    24.386168    11.527019    16.223072    13.290397    5.617924    2.539778    13.027049    23.605736    9.264038    2.632335    0.266997    -10.439863    23.022663    -17.072458    6.843494    -22.753822    44.538818    0.000000    0.000000    0.000000    -13.968493    -25.906681    -7.651486    11.693619    27.968903    -13.722666    2.764903    11.884671    -12.926851    0.000000    0.000000    0.000000    
34.094872    159.208160    -101.826813    -0.647077    -1.890085    25.272266    -2.457812    -2.723035    -3.429549    -6.786357    -3.385158    -1.326228    7.803934    2.226020    -3.158428    11.504256    3.049767    -2.952310    15.171989    -11.902980    -16.143017    -28.690678    -18.964645    -63.310463    1.578548    -52.486988    -92.529610    -28.064451    -44.862003    -38.144039    -7.845595    5.445227    -6.602841    21.773680    24.378651    11.535501    16.233288    13.287920    5.630759    2.526109    13.020097    23.633665    9.263956    2.615084    0.224258    -10.458774    23.043110    -17.074160    6.861306    -22.757124    44.566643    0.000000    0.000000    0.000000    -13.975477    -25.881405    -7.673162    11.676736    27.930435    -13.712330    2.766507    11.898850    -12.918191    0.000000    0.000000    0.000000    
34.096527    159.208954    -101.870117    -0.646893    -1.888238    25.283476    -2.435359    -2.715034    -3.421663    -6.814968    -3.341338    -1.322040    7.859984    2.212255    -3.157747    11.478937    2.953898    -2.953272    15.123346    -11.686952    -16.132896    -28.609713    -18.442104    -63.104469    1.313628    -51.878448    -92.310883    -27.787157    -44.483486    -37.873543    -7.805059    5.444970    -6.615479    21.787653    24.405783    11.539804    16.215822    13.284914    5.649224    2.531649    13.017076    23.658360    9.260777    2.591141    0.173407    -10.487692    23.044048    -17.037886    6.892250    -22.740135    44.580826    0.000000    0.000000    0.000000    -13.983932    -25.876408    -7.696562    11.659548    27.896633    -13.700517    2.766501    11.925828    -12.915197    0.000000    0.000000    0.000000    
34.096146    159.209152    -101.907608    -0.647064    -1.890488    25.298597    -2.419969    -2.702541    -3.415708    -6.824584    -3.306535    -1.318475    7.889589    2.157144    -3.175594    11.464515    2.965265    -2.982483    15.062672    -11.473912    -16.132566    -28.539799    -17.935875    -62.889297    0.920293    -51.278187    -92.213104    -27.534636    -44.219830    -37.535000    -7.778744    5.458832    -6.635159    21.800705    24.433434    11.559755    16.196077    13.268912    5.662407    2.581485    13.010592    23.667759    9.263053    2.573442    0.160065    -10.496229    23.058908    -17.064074    6.910478    -22.734734    44.589874    0.000000    0.000000    0.000000    -13.985969    -25.863771    -7.737681    11.625104    27.865574    -13.672547    2.779610    11.945074    -12.912692    0.000000    0.000000    0.000000    
34.098671    159.213470    -101.947388    -0.643141    -1.886881    25.310963    -2.412163    -2.692979    -3.406140    -6.830502    -3.271927    -1.313499    7.908486    2.154392    -3.187280    11.471985    2.887956    -2.988755    14.995820    -11.250426    -16.123541    -28.528772    -17.476963    -62.721436    0.495473    -50.585487    -92.107788    -27.141659    -43.919029    -37.182137    -7.743598    5.520299    -6.679335    21.800377    24.451689    11.630444    16.150517    13.222254    5.668715    2.658665    12.980505    23.645987    9.249403    2.552495    0.158678    -10.488164    23.068171    -17.063759    6.894998    -22.735977    44.578129    0.000000    0.000000    0.000000    -13.996417    -25.857183    -7.762345    11.605488    27.836992    -13.660046    2.782461    11.964767    -12.919001    0.000000    0.000000    0.000000    
